<svg xmlns="http://www.w3.org/2000/svg" xmlns:xlink="http://www.w3.org/1999/xlink" width="600" zoomAndPan="magnify" viewBox="0 0 450 149.999998" height="200" preserveAspectRatio="xMidYMid meet" version="1.0"><defs><g/><clipPath id="d3a5f2c339"><path d="M 71.972656 50 L 93 50 L 93 113.597656 L 71.972656 113.597656 Z M 71.972656 50 " clip-rule="nonzero"/></clipPath><clipPath id="101dcae594"><path d="M 173.386719 50.738281 L 193.46875 50.738281 L 193.46875 113.597656 L 173.386719 113.597656 Z M 173.386719 50.738281 " clip-rule="nonzero"/></clipPath><clipPath id="28241594a9"><path d="M 123 36.347656 L 143 36.347656 L 143 58 L 123 58 Z M 123 36.347656 " clip-rule="nonzero"/></clipPath></defs><path fill="#ffffff" d="M 113.398438 71.574219 C 111.90625 71.574219 110.519531 71.855469 109.230469 72.421875 C 107.941406 72.984375 106.824219 73.746094 105.878906 74.703125 C 104.933594 75.660156 104.183594 76.785156 103.628906 78.074219 C 103.074219 79.363281 102.800781 80.734375 102.800781 82.183594 C 102.800781 83.636719 103.074219 85.007812 103.628906 86.296875 C 104.183594 87.585938 104.933594 88.710938 105.878906 89.667969 C 106.824219 90.625 107.941406 91.386719 109.230469 91.949219 C 110.519531 92.515625 111.90625 92.796875 113.398438 92.796875 C 114.867188 92.796875 116.246094 92.515625 117.535156 91.949219 C 118.820312 91.386719 119.945312 90.621094 120.898438 89.652344 C 121.855469 88.683594 122.609375 87.5625 123.164062 86.28125 C 123.71875 85 123.996094 83.636719 123.996094 82.183594 C 123.996094 80.734375 123.71875 79.367188 123.164062 78.089844 C 122.609375 76.808594 121.855469 75.683594 120.898438 74.71875 C 119.945312 73.75 118.820312 72.984375 117.535156 72.421875 C 116.246094 71.855469 114.867188 71.574219 113.398438 71.574219 Z M 130.304688 82.183594 C 130.304688 86.902344 128.652344 90.890625 125.355469 94.15625 C 122.011719 97.464844 118.027344 99.117188 113.398438 99.117188 C 108.726562 99.117188 104.742188 97.464844 101.441406 94.15625 C 98.140625 90.851562 96.488281 86.859375 96.488281 82.183594 C 96.488281 77.507812 98.140625 73.519531 101.441406 70.210938 C 104.742188 66.90625 108.726562 65.253906 113.398438 65.253906 C 118.027344 65.253906 122.011719 66.90625 125.355469 70.210938 C 127.003906 71.867188 128.238281 73.691406 129.050781 75.683594 C 129.867188 77.679688 130.285156 79.847656 130.304688 82.183594 " fill-opacity="1" fill-rule="nonzero"/><path fill="#ffffff" d="M 152.042969 71.574219 C 150.554688 71.574219 149.164062 71.855469 147.878906 72.421875 C 146.589844 72.984375 145.472656 73.746094 144.527344 74.703125 C 143.578125 75.660156 142.832031 76.785156 142.277344 78.074219 C 141.722656 79.363281 141.445312 80.734375 141.445312 82.183594 C 141.445312 83.636719 141.722656 85.007812 142.277344 86.296875 C 142.832031 87.585938 143.578125 88.710938 144.527344 89.667969 C 145.472656 90.625 146.589844 91.386719 147.878906 91.949219 C 149.164062 92.515625 150.554688 92.796875 152.042969 92.796875 C 153.511719 92.796875 154.890625 92.515625 156.179688 91.949219 C 157.46875 91.386719 158.589844 90.621094 159.546875 89.652344 C 160.503906 88.683594 161.257812 87.5625 161.8125 86.28125 C 162.363281 85 162.640625 83.636719 162.640625 82.183594 C 162.640625 80.734375 162.363281 79.367188 161.8125 78.089844 C 161.257812 76.808594 160.503906 75.683594 159.546875 74.71875 C 158.589844 73.75 157.46875 72.984375 156.179688 72.421875 C 154.890625 71.855469 153.511719 71.574219 152.042969 71.574219 Z M 168.953125 82.183594 C 168.953125 86.902344 167.300781 90.890625 164 94.15625 C 160.660156 97.464844 156.671875 99.117188 152.042969 99.117188 C 147.375 99.117188 143.386719 97.464844 140.089844 94.15625 C 136.785156 90.851562 135.136719 86.859375 135.136719 82.183594 C 135.136719 77.507812 136.785156 73.519531 140.089844 70.210938 C 143.386719 66.90625 147.375 65.253906 152.042969 65.253906 C 156.671875 65.253906 160.660156 66.90625 164 70.210938 C 165.652344 71.867188 166.882812 73.691406 167.699219 75.683594 C 168.515625 77.679688 168.929688 79.847656 168.953125 82.183594 " fill-opacity="1" fill-rule="nonzero"/><g clip-path="url(#d3a5f2c339)"><path fill="#ffffff" d="M 88.878906 50.773438 C 89.785156 50.773438 90.535156 51.082031 91.128906 51.695312 C 91.722656 52.308594 92.019531 53.0625 92.019531 53.949219 C 92.019531 54.855469 91.722656 55.605469 91.128906 56.199219 C 90.535156 56.792969 89.785156 57.089844 88.878906 57.089844 C 86.382812 57.089844 85.136719 58.339844 85.136719 60.839844 L 85.136719 75.292969 C 85.136719 78.195312 84.472656 80.492188 83.144531 82.183594 C 84.472656 83.878906 85.136719 86.175781 85.136719 89.078125 L 85.136719 103.53125 C 85.136719 106.027344 86.382812 107.277344 88.878906 107.277344 C 89.785156 107.277344 90.535156 107.574219 91.128906 108.171875 C 91.722656 108.765625 92.019531 109.515625 92.019531 110.421875 C 92.019531 111.332031 91.722656 112.085938 91.128906 112.691406 C 90.535156 113.296875 89.785156 113.597656 88.878906 113.597656 C 82.175781 113.597656 78.824219 110.242188 78.824219 103.53125 L 78.824219 89.078125 C 78.824219 86.578125 77.585938 85.328125 75.113281 85.328125 C 74.207031 85.328125 73.457031 85.03125 72.863281 84.4375 C 72.269531 83.84375 71.972656 83.09375 71.972656 82.183594 C 71.972656 81.277344 72.269531 80.527344 72.863281 79.933594 C 73.457031 79.339844 74.207031 79.042969 75.113281 79.042969 C 77.585938 79.042969 78.824219 77.792969 78.824219 75.292969 L 78.824219 60.839844 C 78.824219 54.128906 82.175781 50.773438 88.878906 50.773438 " fill-opacity="1" fill-rule="nonzero"/></g><g clip-path="url(#101dcae594)"><path fill="#ffffff" d="M 186.617188 60.839844 L 186.617188 75.292969 C 186.617188 77.792969 187.855469 79.042969 190.328125 79.042969 C 191.234375 79.042969 191.984375 79.339844 192.578125 79.933594 C 193.171875 80.527344 193.46875 81.277344 193.46875 82.183594 C 193.46875 83.09375 193.171875 83.84375 192.578125 84.4375 C 191.984375 85.03125 191.234375 85.328125 190.328125 85.328125 C 187.855469 85.328125 186.617188 86.578125 186.617188 89.078125 L 186.617188 103.53125 C 186.617188 110.242188 183.265625 113.597656 176.5625 113.597656 C 175.65625 113.597656 174.90625 113.296875 174.3125 112.691406 C 173.71875 112.085938 173.421875 111.332031 173.421875 110.421875 C 173.421875 109.515625 173.71875 108.765625 174.3125 108.171875 C 174.90625 107.574219 175.65625 107.277344 176.5625 107.277344 C 179.058594 107.277344 180.304688 106.027344 180.304688 103.53125 L 180.304688 89.078125 C 180.304688 86.175781 180.96875 83.878906 182.296875 82.183594 C 180.96875 80.492188 180.304688 78.195312 180.304688 75.292969 L 180.304688 60.839844 C 180.304688 58.339844 179.058594 57.089844 176.5625 57.089844 C 175.65625 57.089844 174.90625 56.792969 174.3125 56.199219 C 173.71875 55.605469 173.421875 54.855469 173.421875 53.949219 C 173.421875 53.0625 173.71875 52.308594 174.3125 51.695312 C 174.90625 51.082031 175.65625 50.773438 176.5625 50.773438 C 183.265625 50.773438 186.617188 54.128906 186.617188 60.839844 " fill-opacity="1" fill-rule="nonzero"/></g><g clip-path="url(#28241594a9)"><path fill="#ffffff" d="M 142.171875 53.28125 C 142.171875 53.804688 142.070312 54.292969 141.867188 54.746094 C 141.667969 55.199219 141.402344 55.597656 141.070312 55.941406 C 140.738281 56.28125 140.339844 56.550781 139.875 56.742188 C 139.414062 56.933594 138.929688 57.027344 138.425781 57.027344 C 137.5 57.027344 136.707031 56.707031 136.042969 56.0625 C 135.378906 55.417969 134.835938 54.625 134.410156 53.6875 C 133.988281 52.75 133.679688 51.78125 133.492188 50.785156 C 133.300781 49.789062 133.203125 48.855469 133.203125 47.988281 C 133.203125 44.421875 134.722656 40.8125 137.761719 37.164062 C 138.304688 36.621094 138.921875 36.347656 139.605469 36.347656 C 140.308594 36.347656 140.914062 36.601562 141.417969 37.105469 C 141.917969 37.609375 142.171875 38.214844 142.171875 38.917969 C 142.171875 39.261719 142.101562 39.613281 141.960938 39.976562 C 141.054688 42.195312 140.601562 44.300781 140.601562 46.296875 C 140.601562 48.191406 141.011719 50.023438 141.839844 51.796875 C 142.0625 52.300781 142.171875 52.796875 142.171875 53.28125 Z M 132.238281 53.28125 C 132.238281 53.804688 132.136719 54.292969 131.9375 54.746094 C 131.734375 55.199219 131.46875 55.597656 131.136719 55.941406 C 130.804688 56.28125 130.40625 56.550781 129.941406 56.742188 C 129.480469 56.933594 128.996094 57.027344 128.492188 57.027344 C 127.566406 57.027344 126.773438 56.707031 126.109375 56.0625 C 125.445312 55.417969 124.902344 54.625 124.476562 53.6875 C 124.054688 52.75 123.75 51.78125 123.558594 50.785156 C 123.367188 49.789062 123.269531 48.855469 123.269531 47.988281 C 123.269531 44.421875 124.789062 40.8125 127.828125 37.164062 C 128.371094 36.621094 128.988281 36.347656 129.671875 36.347656 C 130.375 36.347656 130.980469 36.601562 131.484375 37.105469 C 131.984375 37.609375 132.238281 38.214844 132.238281 38.917969 C 132.238281 39.261719 132.167969 39.613281 132.027344 39.976562 C 131.121094 42.195312 130.667969 44.300781 130.667969 46.296875 C 130.667969 48.191406 131.078125 50.023438 131.90625 51.796875 C 132.125 52.300781 132.238281 52.796875 132.238281 53.28125 " fill-opacity="1" fill-rule="nonzero"/></g><g fill="#ffffff" fill-opacity="1"><g transform="translate(202.041159, 92.964035)"><g><path d="M 9.03125 0.453125 C 7.0625 0.453125 5.210938 0.296875 3.484375 -0.015625 L 3.484375 -24.390625 C 5.085938 -24.585938 6.945312 -24.6875 9.0625 -24.6875 C 11.1875 -24.6875 13.109375 -24.394531 14.828125 -23.8125 C 16.546875 -23.238281 17.976562 -22.421875 19.125 -21.359375 C 21.457031 -19.210938 22.625 -16.21875 22.625 -12.375 C 22.625 -8.0625 21.328125 -4.785156 18.734375 -2.546875 C 16.398438 -0.546875 13.164062 0.453125 9.03125 0.453125 Z M 8.21875 -3.984375 C 9.007812 -3.835938 9.796875 -3.765625 10.578125 -3.765625 C 11.367188 -3.765625 12.21875 -3.921875 13.125 -4.234375 C 14.039062 -4.546875 14.832031 -5.03125 15.5 -5.6875 C 16.9375 -7.070312 17.65625 -9.085938 17.65625 -11.734375 C 17.65625 -16.078125 16.070312 -18.75 12.90625 -19.75 C 11.851562 -20.070312 10.644531 -20.234375 9.28125 -20.234375 L 8.78125 -20.234375 C 8.601562 -20.234375 8.414062 -20.226562 8.21875 -20.21875 Z M 8.21875 -3.984375 "/></g></g></g><g fill="#ffffff" fill-opacity="1"><g transform="translate(226.884061, 92.964035)"><g><path d="M 15.328125 -4.375 C 16.078125 -4.375 16.597656 -4.445312 16.890625 -4.59375 L 16.96875 -4.578125 L 16.78125 0 L 3.140625 0 L 3.140625 -24.359375 C 3.460938 -24.335938 3.828125 -24.316406 4.234375 -24.296875 L 5.5 -24.265625 C 6.351562 -24.242188 7.273438 -24.234375 8.265625 -24.234375 C 11.046875 -24.234375 13.800781 -24.28125 16.53125 -24.375 C 16.394531 -23.3125 16.328125 -21.882812 16.328125 -20.09375 C 16.328125 -19.894531 16.335938 -19.75 16.359375 -19.65625 L 16.328125 -19.609375 C 15.691406 -19.785156 14.789062 -19.875 13.625 -19.875 L 7.890625 -19.875 L 7.890625 -15.234375 L 12.203125 -15.234375 C 13.535156 -15.234375 14.335938 -15.269531 14.609375 -15.34375 L 14.671875 -10.84375 C 14.085938 -10.90625 13.332031 -10.9375 12.40625 -10.9375 L 7.890625 -10.9375 L 7.890625 -4.375 Z M 15.328125 -4.375 "/></g></g></g><g fill="#ffffff" fill-opacity="1"><g transform="translate(245.570877, 92.964035)"><g><path d="M 13.5 0.078125 C 13.113281 0.0234375 12.476562 0 11.59375 0 L 9.578125 0 C 9.253906 0 8.957031 0.0078125 8.6875 0.03125 L 8.671875 0 C 8.722656 -0.0820312 8.75 -0.175781 8.75 -0.28125 C 8.75 -0.394531 8.738281 -0.507812 8.71875 -0.625 C 8.695312 -0.75 8.644531 -0.96875 8.5625 -1.28125 C 8.476562 -1.601562 8.34375 -2.0625 8.15625 -2.65625 L 7.390625 -5.09375 L 0.625 -24.296875 C 1.375 -24.253906 2.332031 -24.234375 3.5 -24.234375 C 4.664062 -24.234375 5.410156 -24.28125 5.734375 -24.375 L 11.21875 -7.8125 L 16.03125 -24.296875 C 16.757812 -24.253906 17.660156 -24.234375 18.734375 -24.234375 C 20.191406 -24.234375 21.039062 -24.28125 21.28125 -24.375 L 14.625 -5.15625 C 14.625 -5.15625 14.414062 -4.445312 14 -3.03125 C 13.644531 -1.8125 13.46875 -1.019531 13.46875 -0.65625 C 13.46875 -0.300781 13.488281 -0.078125 13.53125 0.015625 Z M 13.5 0.078125 "/></g></g></g><g fill="#ffffff" fill-opacity="1"><g transform="translate(267.299315, 92.964035)"><g><path d="M 15.90625 -10.46875 C 15.320312 -10.53125 14.566406 -10.5625 13.640625 -10.5625 L 8.125 -10.5625 L 8.125 0 L 3.140625 0 L 3.140625 -24.359375 C 3.460938 -24.335938 3.835938 -24.316406 4.265625 -24.296875 L 5.609375 -24.265625 C 6.535156 -24.242188 7.492188 -24.234375 8.484375 -24.234375 C 11.472656 -24.234375 14.328125 -24.28125 17.046875 -24.375 C 16.921875 -23.3125 16.859375 -21.882812 16.859375 -20.09375 C 16.859375 -19.894531 16.867188 -19.75 16.890625 -19.65625 L 16.859375 -19.609375 C 16.210938 -19.785156 15.3125 -19.875 14.15625 -19.875 L 8.125 -19.875 L 8.125 -14.859375 L 13.453125 -14.859375 C 14.785156 -14.859375 15.582031 -14.894531 15.84375 -14.96875 Z M 15.90625 -10.46875 "/></g></g></g><g fill="#ffffff" fill-opacity="1"><g transform="translate(285.913278, 92.964035)"><g><path d="M 3.703125 -24.296875 C 4.910156 -24.253906 5.644531 -24.234375 5.90625 -24.234375 L 7.21875 -24.234375 C 7.863281 -24.234375 8.378906 -24.28125 8.765625 -24.375 L 8.75 0 L 3.703125 0 Z M 3.703125 -24.296875 "/></g></g></g><g fill="#ffffff" fill-opacity="1"><g transform="translate(298.371155, 92.964035)"><g><path d="M 3.296875 0 C 3.367188 -0.414062 3.40625 -0.863281 3.40625 -1.34375 L 3.40625 -24.234375 L 7.046875 -24.234375 L 16.703125 -9.03125 L 16.703125 -23 C 16.703125 -23.664062 16.644531 -24.078125 16.53125 -24.234375 L 21.4375 -24.234375 C 21.382812 -23.742188 21.359375 -23.207031 21.359375 -22.625 L 21.359375 0 L 17.5625 0 L 8.046875 -14.59375 L 8.046875 0 Z M 3.296875 0 "/></g></g></g><g fill="#ffffff" fill-opacity="1"><g transform="translate(323.122997, 92.964035)"><g><path d="M 9.03125 0.453125 C 7.0625 0.453125 5.210938 0.296875 3.484375 -0.015625 L 3.484375 -24.390625 C 5.085938 -24.585938 6.945312 -24.6875 9.0625 -24.6875 C 11.1875 -24.6875 13.109375 -24.394531 14.828125 -23.8125 C 16.546875 -23.238281 17.976562 -22.421875 19.125 -21.359375 C 21.457031 -19.210938 22.625 -16.21875 22.625 -12.375 C 22.625 -8.0625 21.328125 -4.785156 18.734375 -2.546875 C 16.398438 -0.546875 13.164062 0.453125 9.03125 0.453125 Z M 8.21875 -3.984375 C 9.007812 -3.835938 9.796875 -3.765625 10.578125 -3.765625 C 11.367188 -3.765625 12.21875 -3.921875 13.125 -4.234375 C 14.039062 -4.546875 14.832031 -5.03125 15.5 -5.6875 C 16.9375 -7.070312 17.65625 -9.085938 17.65625 -11.734375 C 17.65625 -16.078125 16.070312 -18.75 12.90625 -19.75 C 11.851562 -20.070312 10.644531 -20.234375 9.28125 -20.234375 L 8.78125 -20.234375 C 8.601562 -20.234375 8.414062 -20.226562 8.21875 -20.21875 Z M 8.21875 -3.984375 "/></g></g></g><g fill="#ffffff" fill-opacity="1"><g transform="translate(347.965898, 92.964035)"><g><path d="M 17.765625 -22.890625 L 17.421875 -17.53125 L 17.296875 -17.484375 C 16.390625 -18.835938 14.859375 -19.710938 12.703125 -20.109375 C 12.015625 -20.242188 11.359375 -20.3125 10.734375 -20.3125 C 10.109375 -20.3125 9.570312 -20.253906 9.125 -20.140625 C 8.6875 -20.035156 8.3125 -19.878906 8 -19.671875 C 7.332031 -19.234375 7 -18.664062 7 -17.96875 C 7 -17.039062 7.289062 -16.347656 7.875 -15.890625 C 8.601562 -15.328125 9.8125 -14.929688 11.5 -14.703125 C 13.1875 -14.484375 14.539062 -14.175781 15.5625 -13.78125 C 16.582031 -13.394531 17.421875 -12.90625 18.078125 -12.3125 C 19.316406 -11.195312 19.9375 -9.617188 19.9375 -7.578125 C 19.9375 -4.910156 18.925781 -2.851562 16.90625 -1.40625 C 15.175781 -0.164062 13.003906 0.453125 10.390625 0.453125 C 8.273438 0.453125 6.1875 0.0507812 4.125 -0.75 C 3.4375 -1.007812 2.835938 -1.316406 2.328125 -1.671875 L 2.53125 -7.765625 L 2.609375 -7.8125 C 4.109375 -5.21875 6.578125 -3.921875 10.015625 -3.921875 C 12.460938 -3.921875 14.078125 -4.507812 14.859375 -5.6875 C 15.128906 -6.082031 15.265625 -6.523438 15.265625 -7.015625 C 15.265625 -7.515625 15.1875 -7.925781 15.03125 -8.25 C 14.875 -8.570312 14.613281 -8.847656 14.25 -9.078125 C 13.539062 -9.535156 12.351562 -9.84375 10.6875 -10 C 9.03125 -10.15625 7.671875 -10.453125 6.609375 -10.890625 C 5.554688 -11.328125 4.710938 -11.867188 4.078125 -12.515625 C 2.941406 -13.679688 2.375 -15.3125 2.375 -17.40625 C 2.375 -19.5625 3.128906 -21.304688 4.640625 -22.640625 C 6.179688 -24.003906 8.257812 -24.6875 10.875 -24.6875 C 13.5 -24.6875 15.796875 -24.085938 17.765625 -22.890625 Z M 17.765625 -22.890625 "/></g></g></g></svg>